<svg id="Capa_1" data-name="Capa 1" xmlns="http://www.w3.org/2000/svg" viewBox="0 0 144.82 76.99"><path d="M89.5,35.31v2.38H74.86V35.34l.42,0c.69,0,1.39,0,2.08-.08a1.54,1.54,0,0,0,1.43-1.43,4.58,4.58,0,0,0,0-.64c0-3.57,0-7.15,0-10.72a8.74,8.74,0,0,0-.23-1.9,4.4,4.4,0,0,0-5.8-3.23A6.29,6.29,0,0,0,68.94,21a6.15,6.15,0,0,0-.61,2.8c0,2.88,0,5.77,0,8.66,0,.32,0,.64,0,1A1.84,1.84,0,0,0,70,35.24a8.93,8.93,0,0,0,1,.08h1.07v2.39H57.86a2,2,0,0,0-.76.17,9.58,9.58,0,0,1-4.78.77A5.8,5.8,0,0,1,47.61,35c-.15-.29-.27-.6-.41-.91-.71.62-1.38,1.22-2.08,1.8A11.18,11.18,0,0,1,34.64,38a5.6,5.6,0,0,1-4.36-4.75,6.7,6.7,0,0,1,2.3-5.84A12.47,12.47,0,0,1,37.38,25a80.59,80.59,0,0,1,9.31-2.18l.39-.08c0-1.47,0-2.95-.16-4.4A3.93,3.93,0,0,0,44.05,15a6.22,6.22,0,0,0-5.11.47l-.17.11c-.71.46-.78.77-.35,1.48a4.4,4.4,0,0,1,.75,2.09,3,3,0,0,1-2.81,3.41,3.85,3.85,0,0,1-3.56-1.11,3.77,3.77,0,0,1-.39-4.18,6.57,6.57,0,0,1,2.21-2.44,12.74,12.74,0,0,1,6-2.22,19.18,19.18,0,0,1,8.31.77,6.74,6.74,0,0,1,4.74,5.8,11.8,11.8,0,0,1,.12,1.88c0,3.74,0,7.49,0,11.23A2.56,2.56,0,0,0,55.7,35a5.47,5.47,0,0,0,4.39-.35,2.48,2.48,0,0,0,1.43-2.39c0-4.43,0-8.86,0-13.28a4.69,4.69,0,0,0-.07-.92,2.27,2.27,0,0,0-2.28-1.82l-1.58-.1v-2.3l2.66-.16,6.88-.37c.25,0,.36,0,.39.31.2,1.45.42,2.91.62,4.36,0,.16,0,.31.06.55l.64-.76a14.19,14.19,0,0,1,4.58-3.82,9.82,9.82,0,0,1,6.72-.67,7.06,7.06,0,0,1,4.93,4.85l.18.53.07.05.8-1a13.32,13.32,0,0,1,5.33-4.12,9.62,9.62,0,0,1,5.66-.47,6.87,6.87,0,0,1,5.5,5.79,13.13,13.13,0,0,1,.26,2.58c0,3.76,0,7.52,0,11.27a2,2,0,0,0,1.31,2,5.57,5.57,0,0,0,4.59,0,2,2,0,0,0,1.23-2c0-4.6,0-9.2,0-13.8a2.56,2.56,0,0,0-2.85-2.85c-.33,0-.66,0-1,0V13.82l10.61-.49v.54c0,6.51,0,13,0,19.53a1.67,1.67,0,0,0,1.77,1.9c.63,0,1.26,0,1.94,0v2.37H92.22V35.32h1.14c.41,0,.83,0,1.23-.09a1.64,1.64,0,0,0,1.47-1.48,3,3,0,0,0,.06-.52c0-3.67,0-7.35,0-11a6.52,6.52,0,0,0-.61-2.8,3.78,3.78,0,0,0-3.29-2.21,5.25,5.25,0,0,0-5.65,3.33,9,9,0,0,0-1,4.17c0,2.81,0,5.62,0,8.42a1.9,1.9,0,0,0,2.1,2.2C88.29,35.33,88.87,35.31,89.5,35.31ZM47.05,25a23.31,23.31,0,0,0-5.92,1.44,5.15,5.15,0,0,0-3.32,5.72,3.1,3.1,0,0,0,3,2.86,5.66,5.66,0,0,0,5.86-4C47.28,29.06,47,27,47.05,25Z"/><path d="M12.87,38.31a12.23,12.23,0,0,1-6.18-2.59A9.07,9.07,0,0,1,3.22,30.3a7.17,7.17,0,0,1,1.7-6.6A5.34,5.34,0,0,1,13.1,24a4.85,4.85,0,0,1,.36,5.21A3.41,3.41,0,0,1,9.41,31,5.72,5.72,0,0,0,8,30.92c-.52,0-.78.34-.82.86a2.75,2.75,0,0,0,1,2.37,7.45,7.45,0,0,0,4.27,1.73,7.61,7.61,0,0,0,3.89-.52A6,6,0,0,0,19.75,31a12.58,12.58,0,0,0,.31-2.74c0-7.85,0-15.7,0-23.55A5.52,5.52,0,0,0,20,4a1.67,1.67,0,0,0-1.6-1.53c-.74-.07-1.5,0-2.24-.06h-2V0h18.5V2.33l-.41,0c-.8,0-1.61,0-2.4.07a1.77,1.77,0,0,0-1.72,1.79c0,.24,0,.48,0,.72V27.48a10.36,10.36,0,0,1-6.69,9.91l-.65.27c.58.1,1,.16,1.5.28,7.43,1.81,12.17,6.45,14.07,13.82A20.75,20.75,0,0,1,35,66.43c-2.72,5.54-7,9.21-13.24,10.25a17.6,17.6,0,0,1-16-4.86A18.34,18.34,0,0,1,.47,61.87,22.85,22.85,0,0,1,1,50.61,18.14,18.14,0,0,1,12.6,38.43Zm15.32,17.8c-.07-1.18-.16-3.22-.34-5.25a16.77,16.77,0,0,0-1.41-5.65,8.52,8.52,0,0,0-9.87-5A8,8,0,0,0,11,44.71,20,20,0,0,0,9,52a52.36,52.36,0,0,0,.23,12.51,15.69,15.69,0,0,0,1.88,5.67,8.42,8.42,0,0,0,13.61,1.32,13.25,13.25,0,0,0,2.63-5.72A46.9,46.9,0,0,0,28.19,56.11Z"/><path d="M36.07,41.36c1.3-.06,2.56-.09,3.83-.19a10.37,10.37,0,0,0,5.18-1.57,3.17,3.17,0,0,0,.74-.61,1.3,1.3,0,0,1,1.23-.45V39q0,16.17,0,32.33a2,2,0,0,0,1.22,1.94,6.35,6.35,0,0,0,3.41.49,7.83,7.83,0,0,0,2.09-.47,2,2,0,0,0,1.35-2c0-4.6,0-9.2,0-13.8a3.72,3.72,0,0,0-.37-1.61,2.38,2.38,0,0,0-2.18-1.19c-.42,0-.85,0-1.3,0V52.32l10.58-.48v19.9c0,1.46.6,2.07,2.06,2.08.55,0,1.09,0,1.66,0v2.35h-29V73.82c.36,0,.71,0,1.07,0a7.7,7.7,0,0,0,1,0A1.86,1.86,0,0,0,40.3,72c0-.25,0-.51,0-.76V46.42a2.64,2.64,0,0,0-2.82-2.85H36.07Z"/><path d="M115.54,64.43H98.81c.07.83.11,1.61.2,2.39a11.41,11.41,0,0,0,1,3.54,6.51,6.51,0,0,0,8.52,3.36,9.41,9.41,0,0,0,4.16-3.27c.47-.61.91-1.25,1.39-1.9l1.85,1.14a18,18,0,0,1-2.1,3,11.27,11.27,0,0,1-8.06,4,14.76,14.76,0,0,1-7.49-1.06,11.67,11.67,0,0,1-7.09-9.49,13.27,13.27,0,0,1,.94-7.62,12.08,12.08,0,0,1,10.07-7.49,12.83,12.83,0,0,1,7,1.06A10.55,10.55,0,0,1,115,59.48a19.24,19.24,0,0,1,.58,4.4C115.55,64.05,115.54,64.22,115.54,64.43ZM98.79,62.05l.44,0h7.61a3.87,3.87,0,0,0,.48,0,1.45,1.45,0,0,0,1.39-1.23,7.64,7.64,0,0,0-.55-4.85A4.27,4.27,0,0,0,104,53.32a4.15,4.15,0,0,0-4,2.73,14.09,14.09,0,0,0-.84,2.7C99,59.82,98.93,60.93,98.79,62.05Z"/><path d="M144.48,26.25H127.77a13.45,13.45,0,0,0,1.45,6.56,6.21,6.21,0,0,0,2.24,2.31,6.8,6.8,0,0,0,6.56.16A10,10,0,0,0,141.81,32c.39-.51.75-1,1.14-1.59l1.87,1.14a18.14,18.14,0,0,1-2.37,3.34,11.21,11.21,0,0,1-7.51,3.69,14.83,14.83,0,0,1-7.63-1,11.71,11.71,0,0,1-7.29-10,13.08,13.08,0,0,1,1.2-7.69c2.34-4.49,6-7,11.15-7.08a12.43,12.43,0,0,1,6,1.27,10.56,10.56,0,0,1,5.41,7A20.78,20.78,0,0,1,144.48,26.25Zm-16.7-2.34c2.79,0,5.52,0,8.24,0a1.51,1.51,0,0,0,1.66-1.51,9.54,9.54,0,0,0,0-2.07,6.23,6.23,0,0,0-1.1-3.3,4.31,4.31,0,0,0-7-.23,8,8,0,0,0-1.06,2A16.27,16.27,0,0,0,127.78,23.91Z"/><path d="M115.61,76.17V73.82c.6,0,1.19,0,1.77,0a5.48,5.48,0,0,0,1.15-.13,1.66,1.66,0,0,0,1.4-1.79V64.44q0-3.24,0-6.5a5.87,5.87,0,0,0-.09-1.11,2.58,2.58,0,0,0-2.71-2.24h-1.49V52.32l10.15-.52v7.37l.09,0c0-.16.11-.31.15-.48a11.36,11.36,0,0,1,2.21-4.4,7.25,7.25,0,0,1,6.57-2.78,4.47,4.47,0,0,1,4,6.08,3.15,3.15,0,0,1-4.15,2,3.28,3.28,0,0,1-1.73-4c.1-.36.31-.69.39-1.05a1.05,1.05,0,0,0-.07-.81,1,1,0,0,0-.79-.18,3.35,3.35,0,0,0-1.86,1.18,13.16,13.16,0,0,0-2.69,5.09,22.54,22.54,0,0,0-1.12,7.33c0,1.58,0,3.16,0,4.74a1.68,1.68,0,0,0,1.91,1.89c1.12,0,2.24,0,3.39,0v2.35Z"/><path d="M63.57,54.11V51.89H77.64v2.19c-.67,0-1.35.05-2,.1a2.29,2.29,0,0,0-.77.19,1.16,1.16,0,0,0-.67,1.46,5.36,5.36,0,0,0,.46,1.23q2.94,5.49,5.92,11a2,2,0,0,0,.15.25c.07-.12.13-.22.18-.32,1.69-3.36,3.39-6.72,5-10.1a4.25,4.25,0,0,0,.38-1.49,1.58,1.58,0,0,0-1-1.68,11.18,11.18,0,0,0-1.71-.5,6.4,6.4,0,0,0-.79-.08V51.89H93V54.1l-.82.16A3.19,3.19,0,0,0,90,55.79c-.48.83-.91,1.69-1.34,2.55q-4.19,8.38-8.35,16.78l0,.07c-.19.34-.32.9-.59,1a4.45,4.45,0,0,1-1.63,0c-.11,0-.23-.19-.3-.32Q74.36,69.74,71,63.58q-2-3.63-3.94-7.25c-.23-.41-.48-.8-.74-1.19a2.32,2.32,0,0,0-2-1Z"/><path d="M108.84,6.92a4.18,4.18,0,1,1,4.09,4.18A4.16,4.16,0,0,1,108.84,6.92Z"/><path d="M57.91,41.08a4.16,4.16,0,0,1,0,8.32,4.16,4.16,0,1,1,0-8.32Z"/></svg>